<svg version="1.1" id="Layer_1" xmlns="http://www.w3.org/2000/svg" xmlns:xlink="http://www.w3.org/1999/xlink" x="0px" y="0px"
	 width="100%" viewBox="0 0 183 208" enable-background="new 0 0 183 208" xml:space="preserve">
<path fill="#F0EDE9" opacity="1.000000" stroke="none" 
	d="
M184.000000,79.000000 
	C184.000000,122.639061 184.000000,165.778122 184.000000,208.958588 
	C123.066650,208.958588 62.133266,208.958588 1.099940,208.958588 
	C1.099940,139.777771 1.099940,70.555344 1.099940,1.166461 
	C61.999630,1.166461 122.999779,1.166461 184.000000,1.166461 
	C184.000000,26.866472 184.000000,52.683235 184.000000,79.000000 
M73.792686,20.352732 
	C74.788742,16.711935 75.784790,13.071140 76.824318,9.271431 
	C71.469185,9.271431 66.511505,9.271431 61.418663,9.271431 
	C58.190289,20.321070 55.008060,31.212759 51.825836,42.104446 
	C51.456490,42.041393 51.087143,41.978340 50.717796,41.915283 
	C50.717796,31.021179 50.717796,20.127075 50.717796,9.317289 
	C45.623795,9.317289 41.022102,9.317289 36.293919,9.317289 
	C36.293919,35.953232 36.293919,62.327667 36.293919,88.678650 
	C41.319374,88.678650 46.048985,88.678650 50.624573,88.678650 
	C51.030426,80.703438 51.419239,73.063034 51.808052,65.422630 
	C52.395859,65.409821 52.983662,65.397003 53.571468,65.384186 
	C56.116215,73.184204 58.660961,80.984230 61.182590,88.713387 
	C66.774826,88.713387 72.157127,88.713387 77.868233,88.713387 
	C74.847122,79.339668 72.372726,70.159439 68.911758,61.367580 
	C65.765015,53.373947 65.435143,45.875175 68.632858,37.862431 
	C70.778648,32.485565 71.931816,26.712559 73.792686,20.352732 
M108.867874,54.486534 
	C108.867874,39.404884 108.867874,24.323233 108.867874,9.277328 
	C103.478798,9.277328 98.862488,9.277328 93.992920,9.277328 
	C93.909767,10.264444 93.784142,11.055062 93.785255,11.845501 
	C93.810852,30.005495 93.788788,48.166000 93.945938,66.324936 
	C93.973000,69.452286 94.464844,72.655067 95.272018,75.681656 
	C97.942513,85.694885 103.985779,90.092308 114.541718,90.060036 
	C124.097626,90.030823 130.240326,85.269814 132.748367,75.602020 
	C133.535431,72.568138 134.014252,69.370773 134.053787,66.240906 
	C134.226379,52.581234 134.189240,38.918869 134.220032,25.257463 
	C134.231918,19.981335 134.221970,14.705156 134.221970,9.367749 
	C128.954041,9.367749 124.228043,9.367749 119.134209,9.367749 
	C119.134209,17.974411 119.135300,26.274191 119.133934,34.573971 
	C119.132256,44.737370 119.192375,54.901417 119.088860,65.063789 
	C119.055481,68.340622 118.450226,71.797760 114.221916,71.907928 
	C109.686783,72.026093 109.057968,68.459793 108.900581,64.974915 
	C108.757904,61.815666 108.868759,58.644978 108.867874,54.486534 
M51.506264,187.010437 
	C58.957695,187.010437 66.409126,187.010437 73.985802,187.010437 
	C73.985802,181.485016 73.985802,176.423386 73.985802,170.857452 
	C70.525101,170.857452 67.284012,170.857452 63.736206,170.857452 
	C63.736206,148.090851 63.736206,125.830284 63.736206,103.444901 
	C54.713623,103.444901 46.029331,103.444901 37.437813,103.444901 
	C37.437813,109.095306 37.437813,114.348724 37.437813,120.107025 
	C41.475803,120.107025 45.214470,120.107025 48.786209,120.107025 
	C48.786209,137.342209 48.786209,154.063034 48.786209,171.285675 
	C44.715347,171.285675 40.990185,171.285675 37.382164,171.285675 
	C37.382164,176.732513 37.382164,181.668472 37.382164,187.010498 
	C41.921410,187.010498 46.215889,187.010498 51.506264,187.010437 
M106.126945,134.566956 
	C106.126945,151.982498 106.126945,169.398041 106.126945,186.689987 
	C111.748817,186.689987 116.665627,186.689987 122.029961,186.689987 
	C122.029961,166.470642 122.029961,146.568909 122.029961,126.078323 
	C126.520882,126.078323 130.576721,126.078323 134.506073,126.078323 
	C134.506073,119.408813 134.506073,113.344147 134.506073,107.400223 
	C120.567177,107.400223 106.997238,107.400223 93.454163,107.400223 
	C93.454163,113.831581 93.454163,119.908890 93.454163,126.360519 
	C97.727310,126.360519 101.675156,126.360519 105.440659,126.360519 
	C105.756828,127.028236 106.002213,127.312523 106.011871,127.604614 
	C106.077820,129.599487 106.094261,131.595993 106.126945,134.566956 
z"/>
<path fill="#111111" opacity="1.000000" stroke="none" 
	d="
M73.660896,20.734764 
	C71.931816,26.712559 70.778648,32.485565 68.632858,37.862431 
	C65.435143,45.875175 65.765015,53.373947 68.911758,61.367580 
	C72.372726,70.159439 74.847122,79.339668 77.868233,88.713387 
	C72.157127,88.713387 66.774826,88.713387 61.182590,88.713387 
	C58.660961,80.984230 56.116215,73.184204 53.571468,65.384186 
	C52.983662,65.397003 52.395859,65.409821 51.808052,65.422630 
	C51.419239,73.063034 51.030426,80.703438 50.624573,88.678650 
	C46.048985,88.678650 41.319374,88.678650 36.293919,88.678650 
	C36.293919,62.327667 36.293919,35.953232 36.293919,9.317289 
	C41.022102,9.317289 45.623795,9.317289 50.717796,9.317289 
	C50.717796,20.127075 50.717796,31.021179 50.717796,41.915283 
	C51.087143,41.978340 51.456490,42.041393 51.825836,42.104446 
	C55.008060,31.212759 58.190289,20.321070 61.418663,9.271431 
	C66.511505,9.271431 71.469185,9.271431 76.824318,9.271431 
	C75.784790,13.071140 74.788742,16.711935 73.660896,20.734764 
z"/>
<path fill="#111111" opacity="1.000000" stroke="none" 
	d="
M108.867851,54.982933 
	C108.868759,58.644978 108.757904,61.815666 108.900581,64.974915 
	C109.057968,68.459793 109.686783,72.026093 114.221916,71.907928 
	C118.450226,71.797760 119.055481,68.340622 119.088860,65.063789 
	C119.192375,54.901417 119.132256,44.737370 119.133934,34.573971 
	C119.135300,26.274191 119.134209,17.974411 119.134209,9.367749 
	C124.228043,9.367749 128.954041,9.367749 134.221970,9.367749 
	C134.221970,14.705156 134.231918,19.981335 134.220032,25.257463 
	C134.189240,38.918869 134.226379,52.581234 134.053787,66.240906 
	C134.014252,69.370773 133.535431,72.568138 132.748367,75.602020 
	C130.240326,85.269814 124.097626,90.030823 114.541718,90.060036 
	C103.985779,90.092308 97.942513,85.694885 95.272018,75.681656 
	C94.464844,72.655067 93.973000,69.452286 93.945938,66.324936 
	C93.788788,48.166000 93.810852,30.005495 93.785255,11.845501 
	C93.784142,11.055062 93.909767,10.264444 93.992920,9.277328 
	C98.862488,9.277328 103.478798,9.277328 108.867874,9.277328 
	C108.867874,24.323233 108.867874,39.404884 108.867851,54.982933 
z"/>
<path fill="#121212" opacity="1.000000" stroke="none" 
	d="
M51.008316,187.010468 
	C46.215889,187.010498 41.921410,187.010498 37.382164,187.010498 
	C37.382164,181.668472 37.382164,176.732513 37.382164,171.285675 
	C40.990185,171.285675 44.715347,171.285675 48.786209,171.285675 
	C48.786209,154.063034 48.786209,137.342209 48.786209,120.107025 
	C45.214470,120.107025 41.475803,120.107025 37.437813,120.107025 
	C37.437813,114.348724 37.437813,109.095306 37.437813,103.444901 
	C46.029331,103.444901 54.713623,103.444901 63.736206,103.444901 
	C63.736206,125.830284 63.736206,148.090851 63.736206,170.857452 
	C67.284012,170.857452 70.525101,170.857452 73.985802,170.857452 
	C73.985802,176.423386 73.985802,181.485016 73.985802,187.010437 
	C66.409126,187.010437 58.957695,187.010437 51.008316,187.010468 
z"/>
<path fill="#131312" opacity="1.000000" stroke="none" 
	d="
M106.126801,134.079468 
	C106.094261,131.595993 106.077820,129.599487 106.011871,127.604614 
	C106.002213,127.312523 105.756828,127.028236 105.440659,126.360519 
	C101.675156,126.360519 97.727310,126.360519 93.454163,126.360519 
	C93.454163,119.908890 93.454163,113.831581 93.454163,107.400223 
	C106.997238,107.400223 120.567177,107.400223 134.506073,107.400223 
	C134.506073,113.344147 134.506073,119.408813 134.506073,126.078323 
	C130.576721,126.078323 126.520882,126.078323 122.029961,126.078323 
	C122.029961,146.568909 122.029961,166.470642 122.029961,186.689987 
	C116.665627,186.689987 111.748817,186.689987 106.126945,186.689987 
	C106.126945,169.398041 106.126945,151.982498 106.126801,134.079468 
z"/>
</svg>